{"title":"Gumrah S03E01 HQ 480p {DAKU RG} {GreatPalash} .MP4","uid":9271977,"size":276654147,"categoryP":"video","categoryS":"hd___tv_shows","magnet":"?xt=urn:btih:10a68582cfed4bc708cf31650c57249473182dc0&amp;dn=Gumrah+S03E01+HQ+480p+%7BDAKU+RG%7D+%7BGreatPalash%7D+.MP4&amp;tr=udp%3A%2F%2Ftracker.openbittorrent.com%3A80&amp;tr=udp%3A%2F%2Fopen.demonii.com%3A1337&amp;tr=udp%3A%2F%2Ftracker.coppersurfer.tk%3A6969&amp;tr=udp%3A%2F%2Fexodus.desync.com%3A6969","seeders":1,"leechers":0,"uploader":"Palash995","files":1,"time":1385798164,"description":"\n\nGumrah Season 3\nSeason 1 Ep. 1\nReleased: 07/07/13\nRunning time: 41:27\n\nThe full episode of today's Gumrah, Season 3, discusses about the judgment of panchayat, regarding rape victims. Manoj professes his love to Akanksha, but she denies him. Manoj believes that Akanksha refused him because of their caste difference. Meanwhile, the panchayat orders a man to marry the girl, whom he raped. Manoj assumes that the panchayat will get him married to Akanksha, if he molests her. But, Akanksha's father complains to the police and brings him to justice.\n\nScreenshots:-\n\n\n\n\n\nMedia Info:-\n\nGeneral\nComplete name : Gumrah S03E01 HQ 480p {DAKU RG} {GreatPalash}.MP4\nFormat : MPEG-4\nFormat profile : Base Media\nCodec ID : isom\nFile size : 264 MiB\nDuration : 41mn 26s\nOverall bit rate mode : Variable\nOverall bit rate : 890 Kbps\nEncoded date : UTC 2013-11-22 14:01:25\nTagged date : UTC 2013-11-22 14:01:25\n\nVideo\nID : 1\nFormat : AVC\nFormat/Info : Advanced Video Codec\nFormat profile : &lt;a class=&quot;__cf_email__&quot; href=&quot;/cdn-cgi/l/email-protection&quot; data-cfemail=&quot;f1bc90989fb1bdc2dfc1&quot;&gt;[email&amp;#160;protected]&lt;/a&gt;&lt;script cf-hash='f9e31' type=&quot;text/javascript&quot;&gt;\n/* &lt;![CDATA[ */!function(){try{var t=&quot;currentScript&quot;in document?document.currentScript:function(){for(var t=document.getElementsByTagName(&quot;script&quot;),e=t.length;e--;)if(t[e].getAttribute(&quot;cf-hash&quot;))return t[e]}();if(t&amp;&amp;t.previousSibling){var e,r,n,i,c=t.previousSibling,a=c.getAttribute(&quot;data-cfemail&quot;);if(a){for(e=&quot;&quot;,r=parseInt(a.substr(0,2),16),n=2;a.length-n;n+=2)i=parseInt(a.substr(n,2),16)^r,e+=String.fromCharCode(i);e=document.createTextNode(e),c.parentNode.replaceChild(e,c)}}}catch(u){}}();/* ]]&gt; */&lt;/script&gt;\nFormat settings, CABAC : Yes\nFormat settings, ReFrames : 3 frames\nCodec ID : avc1\nCodec ID/Info : Advanced Video Coding\nDuration : 41mn 26s\nBit rate : 634 Kbps\nWidth : 640 pixels\nHeight : 480 pixels\nDisplay aspect ratio : 4:3\nFrame rate mode : Constant\nFrame rate : 25.000 fps\nColor space : YUV\nChroma subsampling : 4:2:0\nBit depth : 8 bits\nScan type : Progressive\nBits/(Pixel*Frame) : 0.083\nStream size : 188 MiB (71%)\nEncoded date : UTC 2013-11-22 14:01:25\nTagged date : UTC 2013-11-22 14:01:25\n\nAudio\nID : 2\nFormat : AAC\nFormat/Info : Advanced Audio Codec\nFormat profile : LC\nCodec ID : 40\nDuration : 41mn 26s\nBit rate mode : Variable\nBit rate : 254 Kbps\nChannel(s) : 2 channels\nChannel positions : Front: L R\nSampling rate : 44.1 KHz\nCompression mode : Lossy\nDelay relative to video : 40ms\nStream size : 75.2 MiB (28%)\nEncoded date : UTC 2013-11-22 14:01:01\nTagged date : UTC 2013-11-22 14:01:01\n\n[IMG]http://imageshack.us/a/img89/4822/zka.gif[/IMG]\n\n[IMG]http://imageshack.us/a/img200/185/tj8.gif[/IMG]\n\n[IMG]http://imageshack.us/a/img593/9603/ua8.gif[/IMG]\n\n[IMG]http://imageshack.us/a/img707/5608/ysmp.png[/IMG][/b][/center]","torrent":{"xt":"urn:btih:10a68582cfed4bc708cf31650c57249473182dc0","amp;dn":"Gumrah+S03E01+HQ+480p+%7BDAKU+RG%7D+%7BGreatPalash%7D+.MP4","amp;tr":["udp%3A%2F%2Ftracker.openbittorrent.com%3A80","udp%3A%2F%2Fopen.demonii.com%3A1337","udp%3A%2F%2Ftracker.coppersurfer.tk%3A6969","udp%3A%2F%2Fexodus.desync.com%3A6969"],"infoHash":"10a68582cfed4bc708cf31650c57249473182dc0","infoHashBuffer":{"type":"Buffer","data":[16,166,133,130,207,237,75,199,8,207,49,101,12,87,36,148,115,24,45,192]},"announce":[],"urlList":[]}}